<svg width="180" height="41" viewBox="0 0 180 41" fill="none" xmlns="http://www.w3.org/2000/svg">
<path d="M176.628 0.683775L177.8 6.44702C176.921 5.99117 175.993 5.633 175.016 5.37251C174.072 5.07947 172.981 4.8841 171.744 4.78642C170.507 4.65618 168.993 4.59106 167.202 4.59106H160.364V17.2409H164.516C166.339 17.2409 168.162 17.2083 169.986 17.1432C171.809 17.0455 173.6 16.785 175.358 16.3617V22.0273C173.6 21.604 171.809 21.3598 169.986 21.2947C168.162 21.197 166.339 21.1482 164.516 21.1482H160.364V34.6283H167.593C170.263 34.6283 172.591 34.4981 174.577 34.2376C176.596 33.9445 178.256 33.4561 179.559 32.7723L178.387 38.5356H154.601C155.024 36.7773 155.268 34.9865 155.334 33.1631C155.431 31.3397 155.48 29.5163 155.48 27.6929V11.5265C155.48 9.70309 155.431 7.87969 155.334 6.05629C155.268 4.23289 155.024 2.44205 154.601 0.683775H176.628Z" fill="#2A2A2A"/>
<path d="M125.168 0.683775C124.744 2.44205 124.484 4.23289 124.386 6.05629C124.321 7.87969 124.289 9.70309 124.289 11.5265V21.7831C124.289 24.3228 124.517 26.6184 124.972 28.6697C125.428 30.6885 126.324 32.3002 127.659 33.505C128.994 34.6771 130.947 35.2632 133.52 35.2632C136.124 35.2632 138.078 34.6771 139.38 33.505C140.715 32.3002 141.611 30.6885 142.067 28.6697C142.523 26.6184 142.75 24.3228 142.75 21.7831V11.5265C142.75 9.70309 142.702 7.87969 142.604 6.05629C142.539 4.23289 142.295 2.44205 141.871 0.683775H148.514C148.09 2.44205 147.83 4.23289 147.732 6.05629C147.667 7.87969 147.635 9.70309 147.635 11.5265V21.7831C147.635 25.3973 147.146 28.5069 146.169 31.1117C145.225 33.7166 143.711 35.7191 141.627 37.1192C139.543 38.5193 136.841 39.2194 133.52 39.2194C130.198 39.2194 127.496 38.5193 125.412 37.1192C123.361 35.7191 121.847 33.7166 120.87 31.1117C119.893 28.5069 119.404 25.3973 119.404 21.7831V11.5265C119.404 9.70309 119.356 7.87969 119.258 6.05629C119.193 4.23289 118.949 2.44205 118.525 0.683775H125.168Z" fill="#2A2A2A"/>
<path d="M99.8021 0.683775C102.277 0.683775 104.54 1.13962 106.591 2.05132C108.675 2.93046 110.335 4.20033 111.573 5.86093C112.843 7.48896 113.478 9.42632 113.478 11.673C113.478 13.4638 113.071 15.0756 112.257 16.5083C111.442 17.9409 110.319 19.162 108.886 20.1714C107.486 21.1482 105.891 21.8645 104.1 22.3204L111.133 32.5281C111.915 33.5375 112.729 34.5469 113.575 35.5563C114.454 36.5657 115.366 37.5588 116.31 38.5356H108.74C108.317 37.5913 107.763 36.5657 107.079 35.4586C106.428 34.319 105.533 32.8863 104.393 31.1606L98.4345 22.8576H95.211V27.6929C95.211 29.5163 95.2436 31.3397 95.3087 33.1631C95.4064 34.9865 95.6668 36.7773 96.0901 38.5356H89.4478C89.871 36.7773 90.1153 34.9865 90.1804 33.1631C90.2781 31.3397 90.3269 29.5163 90.3269 27.6929V11.5265C90.3269 9.70309 90.2781 7.87969 90.1804 6.05629C90.1153 4.23289 89.871 2.44205 89.4478 0.683775H99.8021ZM95.211 18.9503H98.3368C101.528 18.9503 103.97 18.3317 105.663 17.0944C107.356 15.8571 108.203 14.0499 108.203 11.673C108.203 9.26352 107.356 7.48896 105.663 6.34933C103.97 5.17715 101.528 4.59106 98.3368 4.59106H95.211V18.9503Z" fill="#2A2A2A"/>
<path d="M83.8764 28.3766H84.0718L83.2903 35.5074C81.6949 36.7447 79.9203 37.6727 77.9667 38.2914C76.013 38.91 73.4896 39.2194 70.3963 39.2194C67.6286 39.2194 65.0726 38.7309 62.7283 37.7541C60.3839 36.7447 58.3489 35.3446 56.6231 33.5538C54.93 31.763 53.6113 29.6791 52.667 27.3021C51.7227 24.9252 51.2506 22.3529 51.2506 19.5853C51.2506 16.8176 51.7227 14.2453 52.667 11.8684C53.6113 9.49144 54.9463 7.42384 56.672 5.66556C58.3977 3.87472 60.4165 2.49089 62.7283 1.51407C65.0726 0.504691 67.6286 0 70.3963 0C73.3919 0 75.8665 0.309326 77.8201 0.927979C79.8063 1.54663 81.5972 2.47461 83.1927 3.71192L83.9741 10.7939H83.7788C82.4763 8.80767 80.7506 7.16335 78.6016 5.86093C76.4526 4.5585 73.7175 3.90728 70.3963 3.90728C68.345 3.90728 66.4565 4.31429 64.7307 5.12831C63.0376 5.94233 61.5724 7.08195 60.3351 8.54718C59.1303 9.97985 58.186 11.6404 57.5023 13.529C56.8511 15.4175 56.5255 17.4363 56.5255 19.5853C56.5255 21.7343 56.8511 23.753 57.5023 25.6415C58.186 27.5301 59.1303 29.2069 60.3351 30.6722C61.5724 32.1048 63.0376 33.2445 64.7307 34.091C66.4565 34.9051 68.345 35.3121 70.3963 35.3121C73.8803 35.3121 76.6642 34.6609 78.7481 33.3584C80.8646 32.0234 82.574 30.3629 83.8764 28.3766Z" fill="#2A2A2A"/>
<path d="M19.0848 40.3296C18.2983 35.8206 15.1 30.1581 9.01807 25.5966C6.02952 23.3421 2.98855 21.874 0 21.2449V19.0428C5.92466 17.6271 11.7445 13.6424 15.467 8.24206C17.3545 5.51567 18.5604 2.8417 19.0848 0.0628805H21.2868C22.1782 5.35838 26.2678 11.2306 31.8254 15.1629C34.5518 17.1028 37.383 18.4136 40.2667 19.0428V21.2449C34.4469 22.4508 27.6834 27.6414 24.3278 32.9369C22.65 35.6109 21.6539 38.0751 21.2868 40.3296H19.0848Z" fill="#2A2A2A"/>
</svg>
